<?xml version="1.0" standalone="no"?>
<!DOCTYPE svg PUBLIC "-//W3C//DTD SVG 20010904//EN"
 "http://www.w3.org/TR/2001/REC-SVG-20010904/DTD/svg10.dtd">
<svg version="1.0" xmlns="http://www.w3.org/2000/svg"
 width="358.000000pt" height="358.000000pt" viewBox="0 0 358.000000 358.000000"
 preserveAspectRatio="xMidYMid meet">
<metadata>
Created by potrace 1.11, written by Peter Selinger 2001-2013
</metadata>
<g transform="translate(0.000000,358.000000) scale(0.100000,-0.100000)"
fill="#000000" stroke="none">
<path d="M1583 3316 c-147 -69 -248 -186 -310 -362 -11 -33 -17 -82 -17 -149
-1 -84 3 -108 22 -147 12 -26 22 -52 22 -58 0 -6 -32 -47 -71 -93 -67 -77
-127 -157 -174 -231 -94 -150 -202 -348 -234 -432 -13 -32 -27 -68 -31 -79
-19 -45 -40 -155 -40 -209 0 -57 26 -203 39 -221 4 -5 13 -29 20 -51 27 -85
159 -224 257 -270 51 -24 41 -45 -31 -64 -80 -22 -115 -41 -155 -86 -67 -77
-95 -190 -69 -281 9 -34 27 -62 63 -98 l51 -50 0 -125 c0 -128 -11 -191 -47
-262 -23 -47 -23 -48 7 -48 15 0 25 6 25 14 0 19 23 36 38 27 7 -4 10 -15 6
-24 -6 -15 7 -17 132 -17 l139 0 -3 107 c-3 114 10 178 41 197 39 25 77 -65
77 -184 0 -31 3 -72 6 -89 l7 -31 633 0 634 0 0 70 c0 40 4 70 10 70 6 0 10
-8 10 -17 0 -10 13 -40 28 -68 l27 -50 153 -3 c86 -1 152 1 152 7 0 5 -15 33
-32 63 -29 47 -44 79 -79 163 -23 58 -48 146 -54 193 -7 50 -6 53 28 87 58 58
81 118 81 210 -1 67 -5 89 -28 133 -55 107 -141 175 -261 207 -32 8 -60 17
-63 20 -3 2 12 23 33 46 20 23 52 74 71 113 103 220 77 525 -72 820 -148 292
-414 587 -621 687 -44 21 -63 36 -63 49 0 10 4 21 9 24 5 3 14 43 21 88 21
141 -12 272 -88 351 -71 75 -202 98 -299 53z m-6 -110 c-5 -17 -56 -39 -74
-32 -13 5 -13 9 -2 22 25 31 85 39 76 10z m-107 -56 c0 -25 -33 -71 -74 -105
-54 -44 -59 -61 -34 -116 19 -42 18 -107 -2 -139 -15 -24 -37 -2 -44 43 -10
69 3 146 37 210 37 70 117 143 117 107z m-25 -150 c0 -9 -11 -16 -27 -18 -30
-4 -36 6 -16 26 16 16 43 11 43 -8z m548 -343 c-3 -4 -10 -6 -16 -4 -7 2 -20
-3 -30 -11 -17 -15 -30 -12 -75 14 -2 1 6 13 18 27 l21 24 44 -21 c23 -11 41
-25 38 -29z m-31 -39 c-6 -6 -15 -8 -19 -4 -4 4 -1 11 7 16 19 12 27 3 12 -12z
m-3 -302 c21 -15 49 -47 62 -71 23 -43 23 -45 6 -80 -12 -26 -30 -42 -63 -56
-47 -21 -67 -25 -244 -53 -58 -9 -133 -21 -166 -27 -34 -6 -113 -11 -175 -12
-131 -1 -154 8 -194 78 -35 58 -33 97 6 129 45 38 77 53 160 75 143 37 282 51
466 47 93 -2 106 -5 142 -30z m-857 -73 c-34 -48 -128 -254 -162 -353 -75
-224 -79 -415 -10 -550 13 -25 62 -82 109 -128 75 -72 84 -84 69 -93 -10 -5
-18 -19 -18 -30 0 -18 -2 -19 -30 -4 -49 26 -153 129 -190 191 -65 108 -85
251 -56 391 22 101 53 179 143 358 58 117 156 272 161 257 2 -7 -5 -24 -16
-39z m682 -704 c13 -143 7 -156 -79 -162 l-30 -2 -3 114 c-3 122 2 137 46 144
56 9 56 8 66 -94z m-136 -38 c2 -68 -1 -118 -7 -124 -14 -14 -50 18 -67 60
-15 34 -19 164 -7 177 4 4 23 6 43 4 l35 -3 3 -114z m-452 -436 c20 -25 35
-48 32 -50 -3 -3 -26 3 -52 12 -31 12 -45 22 -41 31 3 8 5 22 5 33 0 30 16 23
56 -26z m-26 -170 c0 -24 5 -47 10 -50 17 -10 11 -25 -7 -18 -10 4 -14 2 -9
-5 3 -6 2 -13 -4 -17 -5 -3 -10 3 -10 14 0 12 -4 21 -10 21 -6 0 -10 27 -10
60 0 58 1 60 20 50 15 -8 20 -21 20 -55z m-288 -117 c-21 -42 -26 -66 -26
-118 1 -58 0 -61 -8 -30 -14 49 -4 102 26 155 36 61 41 57 8 -7z m1508 33 c0
-10 -8 -21 -17 -24 -10 -3 -29 -13 -43 -21 -35 -22 -107 -51 -160 -66 -25 -7
-58 -16 -74 -21 -16 -5 -42 -9 -58 -9 -16 0 -37 -4 -46 -9 -9 -5 -96 -11 -192
-14 -188 -5 -183 -3 35 13 77 6 158 15 180 20 22 4 67 14 100 21 33 7 64 16
70 21 5 4 17 8 27 8 17 0 28 4 81 32 12 6 35 18 50 26 16 8 31 20 34 28 7 20
13 17 13 -5z m-1180 -11 c0 -5 -2 -10 -4 -10 -3 0 -8 5 -11 10 -3 6 -1 10 4
10 6 0 11 -4 11 -10z m6 -21 c-4 6 -2 11 3 11 6 0 11 -4 11 -10 0 -5 8 -10 18
-11 10 0 12 -3 5 -6 -23 -9 -13 -20 15 -16 25 3 26 3 6 -8 -18 -9 -29 -6 -63
16 -22 15 -41 32 -41 37 0 6 12 3 26 -7 15 -9 23 -12 20 -6z m114 -59 c0 -5 9
-10 19 -10 11 0 22 -4 25 -9 6 -9 22 -13 161 -34 l90 -14 -77 -2 c-42 0 -80 4
-83 9 -3 6 -21 10 -40 10 -19 0 -37 5 -40 10 -3 6 -17 10 -30 10 -13 0 -27 5
-30 10 -3 6 -17 10 -31 10 -13 0 -24 5 -24 10 0 6 14 10 30 10 17 0 30 -4 30
-10z m-40 -240 c11 -11 20 -26 20 -34 0 -23 -29 -46 -48 -39 -51 18 -69 67
-29 83 32 13 35 12 57 -10z m-320 -381 c-18 -33 -35 -9 -22 33 6 18 13 49 16
68 7 54 10 50 13 -17 2 -35 -1 -72 -7 -84z"/>
</g>
</svg>
